# xmcd
#
# Track frame offsets:
#	150
#	21178
#	40600
#	63592
#	79208
#	99047
#	111998
#	160707
#	191854
#	212024
#	241628
#
# Disc length: 3429 seconds
# Revision: 0
# Processed by: cddbd v1.5.2PL0 Copyright (c) Steve Scherf et al.
# Submitted via: dBpowerAMP V12.0
#
DISCID=850d630b
DTITLE=Jules Carter Trio - Done Misbehaving
DYEAR=2014
DGENRE=Blues
TTITLE0=You Say No
TTITLE1=Same Day Born
TTITLE2=27 Club
TTITLE3=Ten Out Of Ten
TTITLE4=Since You Went Away
TTITLE5=Blondie
TTITLE6=The Purdie Shuffle
TTITLE7=Forever And A Day
TTITLE8=But A Fool
TTITLE9=Bedroom Eyes
TTITLE10=Ma Belle
EXTD=
EXTT0=
EXTT1=
EXTT2=
EXTT3=
EXTT4=
EXTT5=
EXTT6=
EXTT7=
EXTT8=
EXTT9=
EXTT10=
PLAYORDER=
